<svg width="28" height="28" viewBox="0 0 28 28" fill="none" xmlns="http://www.w3.org/2000/svg">
<path d="M14.0001 0.666504C6.64008 0.666504 0.666748 6.63984 0.666748 13.9998C0.666748 21.3598 6.64008 27.3332 14.0001 27.3332C21.3601 27.3332 27.3334 21.3598 27.3334 13.9998C27.3334 6.63984 21.3601 0.666504 14.0001 0.666504ZM7.42675 22.3732C8.00008 21.1732 11.4934 19.9998 14.0001 19.9998C16.5068 19.9998 20.0134 21.1732 20.5734 22.3732C18.7601 23.8132 16.4801 24.6665 14.0001 24.6665C11.5201 24.6665 9.24008 23.8132 7.42675 22.3732ZM22.4801 20.4398C20.5734 18.1198 15.9467 17.3332 14.0001 17.3332C12.0534 17.3332 7.42675 18.1198 5.52008 20.4398C4.16008 18.6532 3.33342 16.4265 3.33342 13.9998C3.33342 8.11984 8.12008 3.33317 14.0001 3.33317C19.8801 3.33317 24.6668 8.11984 24.6668 13.9998C24.6668 16.4265 23.8401 18.6532 22.4801 20.4398ZM14.0001 5.99984C11.4134 5.99984 9.33342 8.07984 9.33342 10.6665C9.33342 13.2532 11.4134 15.3332 14.0001 15.3332C16.5868 15.3332 18.6667 13.2532 18.6667 10.6665C18.6667 8.07984 16.5868 5.99984 14.0001 5.99984ZM14.0001 12.6665C12.8934 12.6665 12.0001 11.7732 12.0001 10.6665C12.0001 9.55984 12.8934 8.6665 14.0001 8.6665C15.1067 8.6665 16.0001 9.55984 16.0001 10.6665C16.0001 11.7732 15.1067 12.6665 14.0001 12.6665Z" fill="white" fill-opacity="0.64"/>
</svg>
