<svg width="24" height="24" viewBox="0 0 24 24" fill="none" xmlns="http://www.w3.org/2000/svg">
<path d="M10.4 3.2002C9.45443 3.2002 8.51817 3.38643 7.64463 3.74826C6.77109 4.1101 5.97736 4.64044 5.30878 5.30903C4.6402 5.97761 4.10985 6.77133 3.74802 7.64487C3.38618 8.51842 3.19995 9.45468 3.19995 10.4002C3.19995 11.3457 3.38618 12.282 3.74802 13.1555C4.10985 14.0291 4.6402 14.8228 5.30878 15.4914C5.97736 16.1599 6.77109 16.6903 7.64463 17.0521C8.51817 17.414 9.45443 17.6002 10.4 17.6002C11.3455 17.6002 12.2817 17.414 13.1553 17.0521C14.0288 16.6903 14.8225 16.1599 15.4911 15.4914C16.1597 14.8228 16.6901 14.0291 17.0519 13.1555C17.4137 12.282 17.6 11.3457 17.6 10.4002C17.6 9.45468 17.4137 8.51842 17.0519 7.64487C16.6901 6.77133 16.1597 5.97761 15.4911 5.30903C14.8225 4.64044 14.0288 4.1101 13.1553 3.74826C12.2817 3.38643 11.3455 3.2002 10.4 3.2002V3.2002Z" stroke="#32AAA7" stroke-width="2" stroke-miterlimit="10"/>
<path d="M20.8 20.8002L15.5496 15.5498" stroke="#32AAA7" stroke-width="2" stroke-miterlimit="10" stroke-linecap="round"/>
</svg>
