<svg width="20" height="22" viewBox="0 0 20 22" fill="none" xmlns="http://www.w3.org/2000/svg">
<g clip-path="url(#clip0)">
<path d="M9.98051 22C9.8933 21.9985 9.80724 21.979 9.72732 21.9426C9.64741 21.9063 9.57522 21.8539 9.51495 21.7884L0.164799 11.3376C0.0663807 11.2267 0.00780769 11.084 -0.00102794 10.9334C-0.00986357 10.7828 0.0315796 10.6337 0.116303 10.5112L3.68565 5.32113C3.74325 5.23468 3.82004 5.16391 3.90951 5.11479C3.99899 5.06568 4.09852 5.03966 4.19972 5.03895H15.8389C15.9392 5.03852 16.0382 5.06299 16.1276 5.11032C16.2171 5.15764 16.2943 5.22646 16.353 5.31105L19.9223 10.5012C20.007 10.6236 20.0485 10.7728 20.0396 10.9233C20.0308 11.0739 19.9722 11.2167 19.8738 11.3275L10.4364 21.7884C10.3786 21.8545 10.3083 21.9075 10.2298 21.9439C10.1514 21.9803 10.0665 21.9994 9.98051 22ZM1.44511 10.8337L9.98051 20.3775L18.5547 10.8337L15.5188 6.35915H4.51979L1.44511 10.8337Z" fill="#2795CC"/>
<path d="M19.3986 11.5493H0.630456C0.463249 11.5493 0.30289 11.4802 0.184656 11.3574C0.0664228 11.2345 0 11.0679 0 10.8942C0 10.7205 0.0664228 10.5538 0.184656 10.431C0.30289 10.3082 0.463249 10.2391 0.630456 10.2391H19.3986C19.5658 10.2391 19.7262 10.3082 19.8444 10.431C19.9627 10.5538 20.0291 10.7205 20.0291 10.8942C20.0291 11.0679 19.9627 11.2345 19.8444 11.3574C19.7262 11.4802 19.5658 11.5493 19.3986 11.5493Z" fill="#2795CC"/>
<path d="M9.98058 22C9.85829 22.0015 9.73838 21.9649 9.63636 21.8948C9.53434 21.8247 9.4549 21.7245 9.40832 21.607L4.97573 11.1562C4.92989 11.068 4.90588 10.9693 4.90588 10.869C4.90588 10.7687 4.92989 10.67 4.97573 10.5818L7.69154 5.39168C7.77331 5.24151 7.90805 5.13023 8.06731 5.08134C8.22657 5.03245 8.39788 5.04977 8.54508 5.12966C8.62146 5.17068 8.68895 5.2275 8.74341 5.29662C8.79788 5.36575 8.83816 5.44572 8.86178 5.53162C8.8854 5.61751 8.89186 5.70752 8.88076 5.79611C8.86967 5.8847 8.84125 5.96999 8.79726 6.04675L6.24634 10.9244L9.96118 19.672L13.4141 10.9244L10.9699 6.04675C10.895 5.89288 10.8815 5.71453 10.9323 5.55039C10.9832 5.38625 11.0943 5.24956 11.2415 5.16997C11.3137 5.1283 11.3932 5.10226 11.4754 5.09343C11.5575 5.08459 11.6405 5.09315 11.7194 5.11858C11.7983 5.14401 11.8713 5.18579 11.9342 5.24139C11.9971 5.29699 12.0485 5.36526 12.0853 5.44207L14.675 10.6322C14.7132 10.7174 14.733 10.8103 14.733 10.9043C14.733 10.9983 14.7132 11.0912 14.675 11.1764L10.5625 21.5969C10.5143 21.714 10.4347 21.8142 10.3333 21.8856C10.2318 21.9571 10.1128 21.9968 9.99028 22H9.98058Z" fill="#2795CC"/>
<path d="M12.706 2.83188L9.99993 0L7.29382 2.83188L4.02515 1.06825V3.9606H5.77102H9.83504H10.1648H14.2288H15.9844V1.06825L12.706 2.83188Z" fill="#2795CC"/>
</g>
<defs>
<clipPath id="clip0">
<rect width="20" height="22" fill="white"/>
</clipPath>
</defs>
</svg>
