<svg width="20" height="18" viewBox="0 0 20 18" fill="none" xmlns="http://www.w3.org/2000/svg">
<g clip-path="url(#clip0)">
<path d="M8.38436 6.26261L10.0051 3.39392L11.6155 6.26261L14.5662 7.82827L11.6155 9.40402L10.0051 12.2727L8.38436 9.40402L5.43372 7.82827L8.38436 6.26261Z" fill="white"/>
<path d="M9.98466 18.0002C9.8918 18.0011 9.79971 17.9836 9.71398 17.9489C9.62826 17.9142 9.55068 17.8629 9.48596 17.7981L0.176868 8.08096C0.116176 8.0174 0.0692619 7.94261 0.0389183 7.86104C0.00857472 7.77948 -0.00457761 7.69282 0.000244438 7.60622C-0.0098471 7.53923 -0.0098471 7.47118 0.000244438 7.4042C0.592868 5.27472 1.89037 3.39427 3.69223 2.05345C5.49409 0.712633 7.7 -0.013916 9.96908 -0.013916C12.2382 -0.013916 14.4441 0.712633 16.2459 2.05345C18.0478 3.39427 19.3453 5.27472 19.9379 7.4042C19.948 7.47118 19.948 7.53923 19.9379 7.60622C19.9399 7.77394 19.8769 7.93624 19.7613 8.06076L10.4106 17.7981C10.2996 17.9148 10.1476 17.9869 9.98466 18.0002ZM1.43401 7.4345L9.98466 16.384L18.5665 7.4345C17.995 5.66063 16.8559 4.11051 15.315 3.00994C13.7742 1.90938 11.9122 1.31586 10.0002 1.31586C8.08829 1.31586 6.22628 1.90938 4.68546 3.00994C3.14464 4.11051 2.00551 5.66063 1.43401 7.4345Z" fill="white"/>
</g>
<defs>
<clipPath id="clip0">
<rect width="20" height="18" fill="white"/>
</clipPath>
</defs>
</svg>
