<svg width="20" height="22" viewBox="0 0 20 22" fill="none" xmlns="http://www.w3.org/2000/svg">
<g clip-path="url(#clip0)">
<path d="M10.0366 5.86462L11.5466 9.67309L15.7331 9.89593L12.4735 12.4687L13.5566 16.4088L10.0366 14.1906L6.50615 16.4088L7.58923 12.4687L4.32959 9.89593L8.52651 9.67309L10.0366 5.86462Z" fill="#E07000"/>
<path d="M10.0156 21.9999C9.92188 21.9989 9.8293 21.9796 9.74342 21.9431C9.65753 21.9065 9.5801 21.8535 9.51574 21.7872L0.142974 12.0229C0.0445007 11.8949 -0.00353169 11.7368 0.0075901 11.5773C-0.00253003 11.5067 -0.00253003 11.4351 0.0075901 11.3646H0.0075901C0.608584 9.23534 1.91188 7.357 3.71716 6.01822C5.52245 4.67945 7.72981 3.95435 10 3.95435C12.2702 3.95435 14.4776 4.67945 16.2828 6.01822C18.0881 7.357 19.3914 9.23534 19.9924 11.3646C20.0025 11.4351 20.0025 11.5067 19.9924 11.5773C19.9919 11.742 19.9288 11.9007 19.8154 12.0229L10.4426 21.7872C10.3343 21.9097 10.1811 21.986 10.0156 21.9999ZM1.44475 11.4051L10.0156 20.3793L18.6177 11.4051C18.0449 9.62631 16.9031 8.07191 15.3586 6.9683C13.8141 5.86469 11.9477 5.26954 10.0312 5.26954C8.11476 5.26954 6.24835 5.86469 4.70388 6.9683C3.15942 8.07191 2.0176 9.62631 1.44475 11.4051Z" fill="#E07000"/>
<path d="M10.0365 2.02578C10.6117 2.02578 11.078 1.5723 11.078 1.01289C11.078 0.453487 10.6117 0 10.0365 0C9.46138 0 8.99512 0.453487 8.99512 1.01289C8.99512 1.5723 9.46138 2.02578 10.0365 2.02578Z" fill="#E07000"/>
<path d="M16.4204 3.95022C16.9956 3.95022 17.4619 3.49673 17.4619 2.93733C17.4619 2.37793 16.9956 1.92444 16.4204 1.92444C15.8453 1.92444 15.379 2.37793 15.379 2.93733C15.379 3.49673 15.8453 3.95022 16.4204 3.95022Z" fill="#E07000"/>
<path d="M3.64213 3.95022C4.21729 3.95022 4.68354 3.49673 4.68354 2.93733C4.68354 2.37793 4.21729 1.92444 3.64213 1.92444C3.06697 1.92444 2.60071 2.37793 2.60071 2.93733C2.60071 3.49673 3.06697 3.95022 3.64213 3.95022Z" fill="#E07000"/>
</g>
<defs>
<clipPath id="clip0">
<rect width="20" height="22" fill="white"/>
</clipPath>
</defs>
</svg>
