<svg width="20" height="22" viewBox="0 0 20 22" fill="none" xmlns="http://www.w3.org/2000/svg">
<g clip-path="url(#clip0)">
<path d="M9.98051 22C9.89293 22.0008 9.80617 21.984 9.72593 21.9508C9.64569 21.9175 9.57379 21.8685 9.51495 21.8071L0.164799 12.2774C0.0663807 12.1763 0.00780769 12.0461 -0.00102794 11.9088C-0.00986357 11.7715 0.0315796 11.6355 0.116303 11.5238L3.68565 6.80037C3.74431 6.72324 3.82156 6.66049 3.91097 6.61733C4.00038 6.57418 4.09937 6.55186 4.19972 6.55225H15.8389C15.9392 6.55186 16.0382 6.57418 16.1276 6.61733C16.2171 6.66049 16.2943 6.72324 16.353 6.80037L19.9223 11.5238C20.007 11.6355 20.0485 11.7715 20.0396 11.9088C20.0308 12.0461 19.9722 12.1763 19.8738 12.2774L10.4364 21.8162C10.3781 21.8753 10.3075 21.9222 10.229 21.9539C10.1505 21.9855 10.0658 22.0013 9.98051 22ZM1.44511 11.8271L9.98051 20.5297L18.5547 11.8271L15.5188 7.7469H4.51979L1.44511 11.8271Z" fill="#9225F2"/>
<path d="M19.3986 12.4703H0.630456C0.463249 12.4703 0.30289 12.4074 0.184656 12.2953C0.0664228 12.1833 0 12.0314 0 11.873C0 11.7145 0.0664228 11.5626 0.184656 11.4506C0.30289 11.3386 0.463249 11.2756 0.630456 11.2756H19.3986C19.5658 11.2756 19.7262 11.3386 19.8444 11.4506C19.9627 11.5626 20.0291 11.7145 20.0291 11.873C20.0291 12.0314 19.9627 12.1833 19.8444 12.2953C19.7262 12.4074 19.5658 12.4703 19.3986 12.4703Z" fill="#9225F2"/>
<path d="M9.98062 22C9.85834 22.0014 9.73843 21.968 9.6364 21.9041C9.53438 21.8402 9.45494 21.7488 9.40836 21.6417L4.97577 12.112C4.93076 12.0313 4.90723 11.9414 4.90723 11.8501C4.90723 11.7588 4.93076 11.6689 4.97577 11.5882L7.69158 6.86471C7.72808 6.79098 7.7801 6.72509 7.84446 6.6711C7.90881 6.61712 7.98414 6.57617 8.06581 6.55078C8.14748 6.52538 8.23377 6.51608 8.31938 6.52344C8.40498 6.5308 8.48809 6.55467 8.56361 6.59358C8.63912 6.63249 8.70543 6.68562 8.75848 6.7497C8.81152 6.81378 8.85018 6.88747 8.87207 6.96622C8.89395 7.04498 8.89861 7.12714 8.88576 7.20766C8.8729 7.28819 8.8428 7.36537 8.79731 7.43447L6.24638 11.9466L9.96122 19.9232L13.4142 11.9466L10.97 7.42528C10.8946 7.28361 10.8808 7.11961 10.9316 6.96844C10.9824 6.81727 11.0936 6.69096 11.2415 6.61659C11.3146 6.58021 11.3946 6.558 11.4768 6.55126C11.5591 6.54453 11.6419 6.5534 11.7205 6.57736C11.7991 6.60132 11.8718 6.63989 11.9345 6.6908C11.9971 6.74172 12.0484 6.80397 12.0854 6.8739L14.6751 11.5974C14.7135 11.6767 14.7333 11.7629 14.7333 11.8501C14.7333 11.9373 14.7135 12.0235 14.6751 12.1028L10.5626 21.6325C10.5164 21.7406 10.4374 21.8333 10.3355 21.8987C10.2336 21.9642 10.1134 21.9994 9.99032 22H9.98062Z" fill="#9225F2"/>
<path d="M12.7061 4.01587L9.99998 0L7.29387 4.01587L4.0155 0.900585V5.55973H5.77108H9.8351H10.1649H14.2289H15.9845V0.900585L12.7061 4.01587Z" fill="#9225F2"/>
</g>
<defs>
<clipPath id="clip0">
<rect width="20" height="22" fill="white"/>
</clipPath>
</defs>
</svg>
