<svg width="20" height="22" viewBox="0 0 20 22" fill="none" xmlns="http://www.w3.org/2000/svg">
<g clip-path="url(#clip0)">
<path d="M9.98051 22C9.80849 22.0049 9.64141 21.9408 9.51495 21.8215L0.164799 11.5059C0.0663807 11.3968 0.00780769 11.2562 -0.00102794 11.108C-0.00986357 10.9599 0.0315796 10.8131 0.116303 10.6925L3.68565 5.58434C3.74431 5.50109 3.82156 5.43336 3.91097 5.38678C4.00038 5.3402 4.09937 5.31612 4.19972 5.31653H15.8389C15.9392 5.31612 16.0382 5.3402 16.1276 5.38678C16.2171 5.43336 16.2943 5.50109 16.353 5.58434L19.9223 10.6925C20.007 10.8131 20.0485 10.9599 20.0396 11.108C20.0308 11.2562 19.9722 11.3968 19.8738 11.5059L10.4364 21.8215C10.3761 21.8812 10.3047 21.9278 10.2263 21.9585C10.148 21.9892 10.0644 22.0033 9.98051 22ZM1.44511 11.01L9.98051 20.4031L18.5547 11.01L15.5188 6.60598H4.51979L1.44511 11.01Z" fill="white"/>
<path d="M19.3987 11.7142H0.630477C0.4755 11.6945 0.332882 11.6177 0.229466 11.498C0.12605 11.3784 0.0689697 11.2242 0.0689697 11.0645C0.0689697 10.9048 0.12605 10.7506 0.229466 10.6309C0.332882 10.5113 0.4755 10.4344 0.630477 10.4148H19.3987C19.5536 10.4344 19.6963 10.5113 19.7997 10.6309C19.9031 10.7506 19.9602 10.9048 19.9602 11.0645C19.9602 11.2242 19.9031 11.3784 19.7997 11.498C19.6963 11.6177 19.5536 11.6945 19.3987 11.7142Z" fill="white"/>
<path d="M9.98058 22C9.85829 22.0015 9.73838 21.9654 9.63636 21.8965C9.53434 21.8275 9.4549 21.7288 9.40832 21.6132L4.97573 11.3273C4.92989 11.2405 4.90588 11.1433 4.90588 11.0446C4.90588 10.9459 4.92989 10.8488 4.97573 10.762L7.69154 5.65375C7.77331 5.50594 7.90805 5.39642 8.06731 5.3483C8.22657 5.30018 8.39788 5.31723 8.54508 5.39586C8.61851 5.43536 8.68346 5.48951 8.73608 5.55511C8.7887 5.62072 8.82792 5.69645 8.85143 5.77782C8.87494 5.8592 8.88226 5.94456 8.87296 6.02888C8.86365 6.11319 8.83791 6.19475 8.79726 6.26872L6.24634 11.0893L9.96118 19.7088L13.4141 11.0992L10.9699 6.2588C10.8946 6.10589 10.8808 5.92887 10.9316 5.76571C10.9823 5.60254 11.0936 5.46621 11.2415 5.38594C11.3896 5.30934 11.5612 5.29554 11.7192 5.34753C11.8772 5.39952 12.0087 5.51312 12.0853 5.66367L14.675 10.7719C14.7132 10.8558 14.733 10.9472 14.733 11.0397C14.733 11.1322 14.7132 11.2236 14.675 11.3075L10.5625 21.5933C10.5168 21.7111 10.4381 21.8125 10.3363 21.8849C10.2346 21.9572 10.1142 21.9972 9.99028 22H9.98058Z" fill="white"/>
<path d="M12.7352 2.82687L10 0L7.2648 2.82687L3.94763 3.15419V4.24527H5.72261H9.82542H10.1746H14.2774H16.0524V3.15419L12.7352 2.82687Z" fill="white"/>
</g>
<defs>
<clipPath id="clip0">
<rect width="20" height="22" fill="white"/>
</clipPath>
</defs>
</svg>
