<svg width="20" height="20" viewBox="0 0 20 20" fill="none" xmlns="http://www.w3.org/2000/svg">
<g clip-path="url(#clip0)">
<path d="M10.0053 4.13586L11.304 9.01031L16.4469 10.2412L11.304 11.4722L10.0053 16.3466L8.6962 11.4722L3.55334 10.2412L8.6962 9.01031L10.0053 4.13586Z" fill="white"/>
<path d="M9.98471 20.0001C9.8908 20.0015 9.79766 19.9838 9.71161 19.9481C9.62556 19.9125 9.54862 19.8596 9.48601 19.7933L0.135364 10.3004C0.0303062 10.1716 -0.018095 10.0093 0.000299479 9.84743C-0.00905165 9.77879 -0.00905165 9.70928 0.000299479 9.64064C0.599875 7.5706 1.90009 5.74447 3.70112 4.44291C5.50215 3.14135 7.7043 2.4364 9.96913 2.4364C12.234 2.4364 14.4361 3.14135 16.2371 4.44291C18.0382 5.74447 19.3384 7.5706 19.938 9.64064C19.9473 9.70928 19.9473 9.77879 19.938 9.84743C19.9394 10.0079 19.8763 10.1629 19.7613 10.2807L10.4107 19.7834C10.3031 19.9045 10.1507 19.982 9.98471 20.0001ZM1.43407 9.69972L9.98471 18.4245L18.5665 9.69972C17.995 7.9704 16.8559 6.4592 15.3151 5.38627C13.7743 4.31334 11.9123 3.73473 10.0003 3.73473C8.08834 3.73473 6.22633 4.31334 4.68551 5.38627C3.14469 6.4592 2.00556 7.9704 1.43407 9.69972Z" fill="white"/>
<path d="M14.2962 1.96947C14.87 1.96947 15.3351 1.52859 15.3351 0.984737C15.3351 0.440882 14.87 0 14.2962 0C13.7224 0 13.2572 0.440882 13.2572 0.984737C13.2572 1.52859 13.7224 1.96947 14.2962 1.96947Z" fill="white"/>
<path d="M5.70388 1.96947C6.27768 1.96947 6.74284 1.52859 6.74284 0.984737C6.74284 0.440882 6.27768 0 5.70388 0C5.13008 0 4.66492 0.440882 4.66492 0.984737C4.66492 1.52859 5.13008 1.96947 5.70388 1.96947Z" fill="white"/>
</g>
<defs>
<clipPath id="clip0">
<rect width="20" height="20" fill="white"/>
</clipPath>
</defs>
</svg>
