<svg width="20" height="20" viewBox="0 0 20 20" fill="none" xmlns="http://www.w3.org/2000/svg">
<g clip-path="url(#clip0)">
<path d="M10 19.3897C15.1858 19.3897 19.3897 15.1858 19.3897 10C19.3897 4.81425 15.1858 0.610352 10 0.610352C4.81425 0.610352 0.610352 4.81425 0.610352 10C0.610352 15.1858 4.81425 19.3897 10 19.3897Z" stroke="white" stroke-width="1.3" stroke-linecap="round" stroke-linejoin="round"/>
<path d="M10.4458 10.2462L12.4087 5.29504H13.7153L10.6978 12.4025C10.4946 12.8556 10.3052 13.1779 10.1294 13.3693C9.95361 13.5568 9.74658 13.7013 9.5083 13.8029C9.27393 13.9005 8.979 13.9493 8.62354 13.9493C8.31494 13.9493 8.11768 13.9318 8.03174 13.8966L8.06689 13.006L8.6001 13.0294C9.01025 13.0294 9.31494 12.8322 9.51416 12.4376L9.66064 12.1329L9.8833 11.6115L6.97705 5.29504H8.23682L10.4458 10.2462Z" fill="white"/>
</g>
<defs>
<clipPath id="clip0">
<rect width="20" height="20" fill="white"/>
</clipPath>
</defs>
</svg>
